<svg width="80" height="51" viewBox="0 0 80 51" fill="none" xmlns="http://www.w3.org/2000/svg">
<path d="M38.9 0.118746C38.0438 0.349997 37.6375 0.637497 36.8313 1.55C35.9625 2.54375 35.6438 3.4875 35.7125 4.84375C35.7688 5.99375 36.1 6.81875 36.8688 7.725C37.1063 8 37.4375 8.33125 37.6063 8.45625C37.95 8.70625 38.6625 9.0625 38.825 9.0625C38.8813 9.0625 38.9438 9.0875 38.9625 9.11875C39.025 9.21875 34.3188 25.4312 34.0938 25.9062C33.7938 26.5312 33.5438 26.8437 33.2125 27.0062C32.9563 27.125 32.9 27.1312 32.675 27.0687C32.3313 26.9625 31.9 26.5187 31.5188 25.875C31.35 25.5812 29.375 22.9687 27.1313 20.0687L23.0563 14.7875L23.3438 14.5437C24.65 13.425 25.3125 12.125 25.3125 10.6875C25.3125 9.6125 25.0188 8.79375 24.3188 7.925C23.4938 6.9 22.8313 6.425 21.8875 6.18125C21.0563 5.96875 20.2438 6.06875 19.375 6.4875C19.0125 6.6625 18.7938 6.83125 18.3813 7.25C17.5313 8.11875 17.075 8.85 16.8688 9.6875C16.7625 10.1312 16.7625 11.2437 16.8688 11.6875C16.9875 12.1687 17.375 12.9812 17.6938 13.4125C18.4188 14.4 19.2563 15 20.2188 15.2312C20.4625 15.2875 20.6625 15.3375 20.6688 15.3437C20.6875 15.3562 19.4563 27.6187 19.4 27.9687C19.325 28.4312 19.0625 29.1687 18.875 29.425C18.4063 30.075 17.7625 30.0312 16.7813 29.2812C16.5438 29.1 14.375 27.6625 11.9688 26.0937C9.5625 24.525 7.55625 23.2 7.5125 23.1562C7.44375 23.0937 7.4625 23.025 7.65 22.7625C8.5375 21.5312 8.74375 19.65 8.14375 18.225C7.625 16.9812 6.43125 15.8875 5.21875 15.525C4.7625 15.3937 3.8625 15.375 3.375 15.4937C3.1875 15.5375 2.79375 15.6875 2.5 15.825C2.05625 16.0437 1.875 16.175 1.375 16.6812C0.912499 17.1437 0.718749 17.4 0.518749 17.7812C0.0937491 18.6 0.031249 18.8937 0.031249 20C0.031249 20.8437 0.049999 21.0312 0.181249 21.4375C0.793749 23.4 2.39375 24.6437 4.3125 24.6437C4.99375 24.65 5.38125 24.55 5.9875 24.2187C6.20625 24.0937 6.39375 24 6.40625 24.0125C6.4375 24.0562 8.125 27.2375 8.8 28.5312C10.8438 32.4625 11.8063 35.225 12.3125 38.5937C12.35 38.8312 12.3938 39.1062 12.4125 39.2062L12.45 39.375H39.9375H67.4188L67.4625 39.05C67.5375 38.4562 67.9375 36.55 68.1625 35.7062C68.6438 33.8687 69.4188 31.8875 70.5 29.6937C71.1438 28.3875 73.3625 24.1312 73.4438 24.0375C73.4688 24.0062 73.575 24.0437 73.675 24.1187C74.175 24.4687 75.2 24.7312 75.8375 24.6625C76.925 24.5375 77.725 24.1562 78.5 23.375C78.7938 23.0812 79.125 22.6812 79.2438 22.4875C80.475 20.3875 80.05 17.9562 78.1688 16.375C77.6875 15.9687 77.025 15.6187 76.5 15.4937C76.0563 15.3875 75.25 15.3875 74.8125 15.4937C74.0188 15.6875 73.075 16.3125 72.4688 17.05C71.6938 17.9875 71.3938 18.9125 71.4563 20.2C71.5 21.2187 71.7813 22.0812 72.2938 22.8C72.45 23.025 72.4813 23.1062 72.4188 23.1625C72.3813 23.2 70.3563 24.525 67.9313 26.1062C65.5063 27.6937 63.325 29.1375 63.0875 29.3187C62.5313 29.7375 62.2313 29.875 61.8375 29.875C61.25 29.875 60.8563 29.4437 60.625 28.5375C60.5375 28.1812 60.325 26.2187 59.9063 21.7312C59.5813 18.2625 59.3125 15.4 59.3125 15.3687C59.3125 15.3375 59.3563 15.3125 59.4 15.3125C59.6375 15.3125 60.5188 14.975 60.8563 14.7562C61.5938 14.2812 62.3938 13.3125 62.725 12.4875C63.1563 11.4375 63.175 10.0187 62.7688 9C62.525 8.3875 62.225 7.96875 61.5625 7.30625C60.8938 6.6375 60.3875 6.3375 59.5938 6.15C58.75 5.95625 57.725 6.1375 56.8938 6.6375C56.4563 6.9 55.6313 7.725 55.2813 8.25C54.3625 9.64375 54.3688 11.7687 55.3063 13.2C55.6125 13.675 56.1625 14.2687 56.5938 14.6062L56.8438 14.7937L56.65 15.0375C54.85 17.3187 48.575 25.5437 48.3438 25.9312C47.9938 26.5125 47.4813 27.025 47.1875 27.0812C46.7063 27.1812 46.2 26.7062 45.8375 25.8125C45.7625 25.625 45.3625 24.3125 44.95 22.9062C44.5375 21.4937 43.4625 17.8437 42.5625 14.7812C41.6688 11.725 40.95 9.1875 40.9625 9.14375C40.9813 9.1 41.0375 9.0625 41.0875 9.0625C41.1313 9.0625 41.4063 8.95 41.6875 8.80625C42.3125 8.49375 43.1688 7.68125 43.525 7.0625C44.25 5.81875 44.3938 4.14375 43.8938 2.875C43.4313 1.7 42.25 0.518747 41.1938 0.181246C40.5938 -0.0125035 39.5 -0.0437535 38.9 0.118746Z" fill="#2F2F2F"/>
<path d="M12.4375 46.8125V50.9375H39.9063H67.375L67.3875 46.8125L67.4063 42.6875H39.925H12.4375V46.8125Z" fill="#2F2F2F"/>
</svg>
